{
	"asset":{
		"generator":"Khronos glTF Blender I/O v5.0.21",
		"version":"2.0"
	},
	"extensionsUsed":[
		"KHR_materials_specular"
	],
	"scene":0,
	"scenes":[
		{
			"name":"Scene",
			"nodes":[
				0
			]
		}
	],
	"nodes":[
		{
			"mesh":0,
			"name":"bun_zipper",
			"rotation":[
				0.7071068286895752,
				0,
				0,
				0.7071068286895752
			]
		}
	],
	"materials":[
		{
			"doubleSided":true,
			"extensions":{
				"KHR_materials_specular":{
					"specularFactor":0
				}
			},
			"name":"None",
			"pbrMetallicRoughness":{
				"baseColorFactor":[
					0.800000011920929,
					0.800000011920929,
					0.800000011920929,
					1
				],
				"metallicFactor":0
			}
		}
	],
	"meshes":[
		{
			"name":"bun_zipper",
			"primitives":[
				{
					"attributes":{
						"POSITION":0,
						"NORMAL":1
					},
					"indices":2,
					"material":0
				}
			]
		}
	],
	"accessors":[
		{
			"bufferView":0,
			"componentType":5126,
			"count":34834,
			"max":[
				0.8776900172233582,
				0.498526006937027,
				-0.011761000379920006
			],
			"min":[
				-0.6793000102043152,
				-0.7082070112228394,
				-1.555096983909607
			],
			"type":"VEC3"
		},
		{
			"bufferView":1,
			"componentType":5126,
			"count":34834,
			"type":"VEC3"
		},
		{
			"bufferView":2,
			"componentType":5123,
			"count":208353,
			"type":"SCALAR"
		}
	],
	"bufferViews":[
		{
			"buffer":0,
			"byteLength":418008,
			"byteOffset":0,
			"target":34962
		},
		{
			"buffer":0,
			"byteLength":418008,
			"byteOffset":418008,
			"target":34962
		},
		{
			"buffer":0,
			"byteLength":416706,
			"byteOffset":836016,
			"target":34963
		}
	],
	"buffers":[
		{
			"byteLength":1252724,
			"uri":"Bunny.bin"
		}
	]
}
